<svg width="296" height="303" viewBox="0 0 296 303" fill="none" xmlns="http://www.w3.org/2000/svg">
<g clip-path="url(#clip0_3905_23775)">
<path d="M148.988 169.037C148.988 169.037 152.7 186.535 153.411 191.523C153.727 193.819 153.49 197.461 153.569 200.707C153.648 206.328 152.384 218.917 156.729 230.318C156.729 230.318 160.837 244.253 161.943 249.636C162.417 251.853 162.575 258.662 162.575 258.662C162.575 258.662 162.654 265.63 162.654 266.026C162.654 266.026 161.706 275.922 165.419 276.318C166.446 276.477 170.08 276.239 171.028 276.239C172.371 276.239 172.844 271.409 172.371 265.392C172.371 265.392 172.766 256.05 172.292 254.308C171.976 253.199 171.186 252.487 171.186 252.487C171.186 252.487 172.134 208.941 169.685 200.786C169.685 200.786 168.5 194.373 169.211 187.881L170.08 168.562H167.868L148.988 169.037Z" fill="#F0C79C"/>
<path d="M162.733 258.662C162.733 258.662 161.074 276.872 161.548 281.86C161.785 284.077 166.051 288.194 167.552 288.194C167.552 288.194 171.107 285.898 172.529 282.89C174.266 279.168 172.687 258.504 172.687 258.504C172.687 258.504 172.608 272.043 171.66 274.339C171.265 275.21 166.841 276.952 164.708 274.022C163.128 272.122 162.812 269.034 162.733 258.662Z" fill="#384269"/>
<path d="M167.947 168.087C167.947 168.087 166.525 187.564 169.132 194.61L169.606 199.598C169.606 199.598 171.027 217.808 171.58 225.488C171.975 230.239 173.871 264.759 173.871 264.759C173.871 264.759 172.844 270.38 171.738 278.218L170.712 286.69C170.712 286.69 171.659 289.619 174.108 290.886C175.767 291.757 180.27 292.311 183.746 288.432L183.509 271.172C183.509 271.172 184.141 266.58 183.351 262.146L183.904 254.229C183.904 254.229 188.249 231.901 188.012 223.43C188.012 223.43 189.039 210.049 186.748 200.865C186.748 200.865 184.694 189.781 186.353 182.655L189.355 168.245L167.947 168.087Z" fill="#FED7A8"/>
<path d="M170.711 286.69C170.711 286.69 174.661 290.253 183.746 287.244L183.509 271.172L185.168 292.549C185.168 292.549 183.904 296.904 176.794 298.17C176.794 298.17 169.29 296.112 169.29 291.599L171.896 277.031L170.711 286.69Z" fill="#384269"/>
<path d="M142.352 152.41C142.352 152.41 143.695 164.049 145.196 171.095L149.146 194.373L152.068 209.812C152.068 209.812 151.989 212.187 153.648 213.216C153.648 213.216 158.704 217.016 167.315 218.996C167.315 218.996 181.929 223.43 188.091 221.371C189.434 214.72 190.619 208.386 191.804 202.686L197.886 178.775L200.967 166.424C200.967 166.424 203.258 156.29 201.599 152.173L196.622 125.412L193.542 108.706L155.228 110.131C155.149 110.052 143.3 139.188 142.352 152.41Z" fill="#384269"/>
<path d="M163.918 55.0259C163.918 55.0259 173.634 62.5474 182.245 55.5801L177.031 115.594L169.289 115.673L163.918 55.0259Z" fill="#44873F"/>
<path d="M182.482 46.7128L180.902 58.1931C180.902 58.1931 165.34 62.706 160.679 50.5924L164.708 35.6284C164.708 35.7076 169.606 54.4719 182.482 46.7128Z" fill="#F0C79C"/>
<path d="M147.724 59.539C150.883 57.718 158.23 54.3926 162.259 52.73C162.259 52.73 162.496 53.3634 163.286 54.3926C163.286 54.3926 161.469 58.6681 164.076 63.4977L166.683 80.2826L171.265 93.9798L170.633 115.911L158.467 145.443C158.467 145.443 155.465 154.706 145.828 152.965L141.088 152.252C141.088 152.252 144.09 131.429 145.591 127.708C145.591 127.708 147.487 118.445 149.699 115.436C149.699 115.436 151.041 109.894 150.804 106.648L149.541 95.4049L148.04 80.0451L147.724 59.539Z" fill="#7DC46D"/>
<path d="M198.518 59.7761L181.297 54.709L179.164 64.5266L174.266 84.716L173.318 92.4751L175.609 115.198L177.031 128.262L180.191 142.117C180.191 142.117 182.561 154.152 195.042 152.885C195.042 152.885 203.811 152.964 211.395 148.689L207.84 137.763L202.31 118.919C202.31 118.919 199.466 112.506 199.466 110.368L197.965 92.3959L197.728 74.265L198.518 59.7761Z" fill="#7DC46D"/>
<path d="M187.636 34.9462C188.486 26.2428 184.177 18.697 178.011 18.0922C171.846 17.4873 166.159 24.0524 165.309 32.7558C164.459 41.4592 168.768 49.005 174.933 49.6099C181.099 50.2147 186.786 43.6496 187.636 34.9462Z" fill="#FED7A8"/>
<path d="M157.519 61.9142L159.968 54.0759C159.968 54.0759 160.837 50.6714 163.128 49.563L164.155 50.8298C164.155 52.4133 163.76 54.8677 164.945 58.4305L167.552 76.9573L171.264 92.0796L171.107 97.5426C171.107 97.5426 159.415 80.7577 156.571 64.8436L156.176 62.8643C156.255 62.8643 155.702 61.4391 157.519 61.9142Z" fill="#5BBA47"/>
<path d="M178.295 117.019C179.08 117.019 179.717 116.381 179.717 115.594C179.717 114.807 179.08 114.169 178.295 114.169C177.51 114.169 176.873 114.807 176.873 115.594C176.873 116.381 177.51 117.019 178.295 117.019Z" fill="#F6F7D8"/>
<path d="M179.638 115.515C179.638 116.227 179.085 117.019 178.216 117.177C177.821 117.257 177.347 117.098 176.952 116.861C176.557 116.544 176.399 116.069 176.399 115.594C176.399 115.119 176.636 114.644 176.952 114.327C177.268 114.01 177.742 113.852 178.216 113.931C179.085 114.01 179.638 114.802 179.638 115.515ZM179.638 115.515C179.638 115.119 179.48 114.802 179.164 114.565C178.848 114.327 178.532 114.248 178.216 114.327C177.584 114.486 177.189 115.04 177.189 115.594C177.189 116.148 177.584 116.702 178.216 116.782C178.532 116.861 178.927 116.782 179.164 116.544C179.48 116.307 179.638 115.911 179.638 115.515Z" fill="#30526D"/>
<path d="M181.771 51.7798C181.771 51.7798 187.143 56.2135 186.353 64.131H186.985C186.985 64.131 188.723 63.7351 188.012 65.7936C185.01 74.4236 179.717 85.4289 173.792 97.1466L173.318 92.2378L174.345 84.0037L179.559 62.3891L181.771 51.7798Z" fill="#5BBA47"/>
<path d="M172.291 67.6938C172.859 67.6938 173.318 67.233 173.318 66.6645C173.318 66.0961 172.859 65.6353 172.291 65.6353C171.724 65.6353 171.264 66.0961 171.264 66.6645C171.264 67.233 171.724 67.6938 172.291 67.6938Z" fill="#F6F7D8"/>
<path d="M172.213 78.3032C172.78 78.3032 173.239 77.8423 173.239 77.2739C173.239 76.7054 172.78 76.2446 172.213 76.2446C171.645 76.2446 171.186 76.7054 171.186 77.2739C171.186 77.8423 171.645 78.3032 172.213 78.3032Z" fill="#F6F7D8"/>
<path d="M179.796 21.6143C179.796 21.6143 178.058 14.4095 176.241 13.6177C176.241 13.6177 172.765 11.5592 168.026 15.2804C168.026 15.2804 161.706 19.635 159.099 30.0068C158.23 33.728 157.045 41.4079 156.571 45.0499C156.176 47.9794 156.492 51.7797 152.621 54.3133C152.621 54.3133 161.311 55.976 163.523 51.6214C163.523 51.6214 166.288 47.4252 166.288 41.4871C166.288 40.1411 166.683 36.0241 167.157 34.2822C168.263 30.9569 171.502 17.814 179.796 21.6143Z" fill="#914F22"/>
<path d="M223.244 105.46L226.957 104.827L226.562 105.618L222.375 107.519L223.244 105.46Z" fill="#F6F7D8"/>
<path d="M223.244 105.46C224.35 105.064 225.614 104.747 226.878 104.51L227.51 104.352L227.194 104.985C227.115 105.222 226.957 105.46 226.878 105.777L226.799 105.856L226.641 105.935C225.298 106.568 223.876 107.202 222.375 107.756L221.664 107.994L221.98 107.36C222.533 106.727 222.928 106.014 223.244 105.46ZM223.244 105.46C223.007 106.252 222.849 106.964 222.612 107.598L222.217 107.281C223.56 106.568 224.982 105.856 226.325 105.302L226.167 105.46C226.325 105.222 226.404 104.985 226.562 104.747L226.957 105.222C225.851 105.302 224.587 105.381 223.244 105.46Z" fill="#30526D"/>
<path d="M210.447 107.518L214.792 106.806C214.792 106.806 213.528 108.864 210.447 107.518Z" fill="#F6F7D8"/>
<path d="M210.447 107.518C211 107.36 211.632 107.202 212.422 106.964C213.133 106.727 214.002 106.568 214.713 106.41L215.661 106.251L215.108 107.043C214.792 107.439 214.476 107.756 214.081 107.914C213.686 108.152 213.212 108.231 212.817 108.231C212.343 108.231 211.948 108.152 211.553 108.072C211.316 107.993 211.158 107.914 211 107.835C210.763 107.756 210.605 107.597 210.447 107.518ZM210.447 107.518C210.684 107.597 210.921 107.597 211 107.597C211.237 107.597 211.395 107.677 211.553 107.677C211.948 107.677 212.343 107.677 212.659 107.597C212.975 107.518 213.37 107.439 213.607 107.202C213.923 107.043 214.16 106.806 214.318 106.568L214.713 107.202C214.081 107.281 213.449 107.36 212.659 107.36C212.185 107.36 211.395 107.439 210.447 107.518Z" fill="#30526D"/>
<path d="M196.78 78.8574C196.78 78.8574 197.175 95.5631 195.121 110.685C195.121 110.685 195.121 116.703 201.283 116.782C203.732 116.782 208.156 114.407 210.447 113.14L210.368 107.36L207.208 108.073C207.208 108.073 211.79 82.341 207.208 68.7231C207.208 68.7231 205.707 62.3099 198.123 59.7764L196.78 78.8574Z" fill="#F6F7D8"/>
<path d="M196.78 78.8575C196.859 84.1622 196.78 89.4669 196.543 94.8507C196.306 100.155 195.911 105.46 195.279 110.765C195.358 112.348 195.911 113.932 197.096 115.04C198.202 116.149 199.861 116.624 201.441 116.544C203.021 116.465 204.522 115.753 205.944 115.119C207.445 114.407 208.867 113.694 210.289 112.823L210.131 113.14L210.052 107.36L210.526 107.677L207.366 108.39L206.813 108.548L206.892 107.994C207.445 104.747 207.84 101.501 208.156 98.176C208.472 94.9299 208.788 91.6046 208.867 88.2793C208.946 84.9539 209.025 81.7078 208.709 78.3825C208.472 75.1363 207.998 71.811 207.05 68.7232C206.813 67.6939 206.339 66.6647 205.707 65.7938C205.154 64.8437 204.443 63.9727 203.653 63.2602C202.863 62.4684 201.994 61.835 201.046 61.2808C200.098 60.7266 199.071 60.2516 198.044 59.8557L198.123 59.7765L196.78 78.8575ZM196.78 78.8575L198.044 59.6973V59.6182H198.123C199.15 60.014 200.177 60.4099 201.125 60.9641C202.073 61.5183 202.942 62.2309 203.811 62.9435C204.601 63.7352 205.312 64.6061 205.944 65.5562C206.576 66.5063 207.05 67.5356 207.366 68.644C208.393 71.811 208.946 75.1363 209.262 78.3825C209.578 81.7078 209.578 85.0331 209.499 88.3584C209.42 91.6837 209.183 95.0091 208.867 98.2552C208.551 101.581 208.156 104.827 207.524 108.073L207.05 107.677L210.21 106.964L210.684 106.885V107.36V113.14V113.377L210.526 113.457C209.104 114.248 207.682 115.04 206.102 115.674C204.601 116.307 203.021 116.94 201.283 117.099C199.624 117.099 197.807 116.624 196.622 115.357C195.437 114.169 194.884 112.427 194.805 110.765C195.2 108.152 195.516 105.46 195.753 102.847C195.99 100.235 196.227 97.5426 196.385 94.9299C196.78 89.546 196.859 84.1622 196.78 78.8575Z" fill="#30526D"/>
<path d="M196.385 78.8574C196.385 78.8574 196.78 95.5631 194.726 110.685C194.726 110.685 195.279 116.94 201.441 116.861C203.732 116.861 208.235 114.644 210.526 113.14L210.447 107.36L207.287 108.073C207.287 108.073 212.343 82.7369 207.761 69.1981C207.761 69.1981 205.865 61.8349 198.281 59.7764L196.385 78.8574Z" fill="#FFF1BD"/>
<path d="M199.703 109.181L172.686 111.794C172.291 111.794 171.975 111.477 171.896 111.081L171.58 109.656L200.651 104.985C201.046 104.985 200.888 106.727 200.888 107.202V108.785C200.888 109.181 200.098 109.181 199.703 109.181Z" fill="#2F536E"/>
<path d="M187.854 101.264C187.854 101.264 191.488 104.351 196.78 105.697C197.333 105.856 199.545 105.143 198.439 104.035C197.175 102.768 190.224 99.8384 190.224 99.8384L187.854 101.264Z" fill="#F6F7D8"/>
<path d="M187.617 99.2843C187.617 99.2843 189.592 98.3342 193.225 99.4426L198.439 100.868C198.439 100.868 198.597 102.451 196.464 102.135L191.883 101.026L187.696 100.709L187.617 99.2843Z" fill="#F6F7D8"/>
<path d="M179.638 107.993C179.638 107.993 189.829 107.202 192.12 106.647C192.593 106.489 193.936 105.381 192.278 104.589C192.278 104.589 190.698 103.401 182.087 104.747L179.006 105.301L179.638 107.993Z" fill="#F6F7D8"/>
<path d="M147.96 59.4595C147.96 59.4595 142.273 61.5972 140.219 67.0602C138.876 69.1187 131.924 100.551 134.373 112.427C134.373 112.427 134.531 117.653 141.72 117.178C141.72 117.178 161.39 115.911 171.58 111.239L175.135 109.735C175.135 109.735 180.665 109.181 182.324 106.647C182.324 106.647 184.378 106.172 185.168 104.51C185.168 104.51 186.116 104.114 187.222 103.243C187.222 103.243 188.407 103.322 189.434 103.085C189.434 103.085 192.198 104.114 193.067 103.005C193.067 103.005 197.333 105.539 197.491 103.322C197.491 103.322 197.807 102.768 196.385 101.976C195.121 101.263 195.2 101.501 191.171 99.3633C189.75 98.6507 187.617 98.2549 185.089 97.859C185.089 97.859 184.062 97.7007 181.218 99.9175L174.582 103.401C174.582 103.401 161.469 106.885 147.881 103.955C147.881 103.955 150.014 95.4046 150.646 79.8073C150.488 79.8073 151.989 65.9518 147.96 59.4595Z" fill="#F6F7D8"/>
<path d="M175.056 110.685C165.893 114.802 154.912 116.861 142.115 117.494C134.926 117.89 133.899 112.427 133.899 112.427C131.45 100.472 138.402 69.1188 139.745 67.0603C141.799 61.5972 148.039 59.3804 148.039 59.3804C152.147 65.8727 150.962 79.8073 150.962 79.8073C150.33 95.4047 147.723 103.955 147.723 103.955C155.781 103.005 171.659 103.005 174.424 102.53C176.636 106.806 176.478 107.36 175.056 110.685Z" fill="#FFF1BD"/>
<path d="M218.03 100.947C218.03 100.947 219.294 104.351 217.635 107.122C217.635 107.122 218.346 102.214 218.03 100.947Z" fill="#F6F7D8"/>
<path d="M218.03 100.947C218.267 101.422 218.425 101.976 218.583 102.451C218.741 103.005 218.82 103.56 218.82 104.114C218.82 104.668 218.741 105.222 218.662 105.776C218.504 106.331 218.267 106.806 218.03 107.36L217.003 109.26L217.319 107.122L217.793 104.114L218.03 102.609C217.951 101.976 218.03 101.422 218.03 100.947ZM218.03 100.947C218.267 101.422 218.267 101.976 218.346 102.53C218.346 103.084 218.346 103.56 218.346 104.114C218.346 105.143 218.188 106.172 218.03 107.202L217.319 106.964C217.556 106.568 217.793 106.093 217.951 105.618C218.109 105.143 218.188 104.668 218.267 104.114C218.267 103.005 218.188 101.976 218.03 100.947Z" fill="#30526D"/>
<path d="M221.111 100.234C221.111 100.234 220.795 103.481 221.269 105.143C221.269 105.143 221.348 101.026 221.743 100.551C221.664 100.551 221.269 100.709 221.111 100.234Z" fill="#F6F7D8"/>
<path d="M221.111 100.234C221.19 101.105 221.269 101.897 221.269 102.689C221.348 103.481 221.427 104.272 221.585 105.064L220.795 105.143C220.795 104.351 220.874 103.56 220.953 102.768C221.032 102.372 221.032 101.976 221.111 101.58C221.19 101.184 221.269 100.789 221.506 100.393L221.664 100.551C221.506 100.63 221.348 100.551 221.19 100.472C221.111 100.393 221.111 100.393 221.032 100.314C221.111 100.393 221.111 100.314 221.111 100.234ZM221.111 100.234C221.111 100.314 221.19 100.314 221.269 100.393C221.348 100.393 221.348 100.472 221.427 100.472C221.506 100.472 221.664 100.472 221.743 100.393L221.98 100.234L221.901 100.63C221.822 100.947 221.822 101.343 221.822 101.739V102.926V105.222L221.743 108.073L221.032 105.302C220.795 104.431 220.795 103.56 220.874 102.768C220.716 101.897 220.874 101.026 221.111 100.234Z" fill="#30526D"/>
<path d="M180.033 21.456C180.033 21.456 177.347 13.8553 175.135 13.2219C175.135 13.2219 181.771 12.1926 186.669 17.814C189.75 21.3768 192.12 23.5937 193.383 36.9742C193.857 42.2789 193.462 48.0586 194.647 53.2049C195.042 54.7884 195.516 57.1636 196.701 57.7178C197.175 57.9554 183.351 60.4098 182.008 52.0965C181.534 49.167 182.64 46.4751 182.64 46.4751C182.64 46.4751 187.933 40.9329 186.748 35.3115C186.432 33.8072 187.143 28.9776 187.143 28.9776C187.143 28.9776 186.432 20.6643 180.033 21.456Z" fill="#914F22"/>
<path d="M240.781 283.918C240.781 283.918 243.151 281.385 242.756 279.247L255.396 279.88L256.739 286.848C256.739 286.848 246.074 293.182 240.781 283.918Z" fill="#F6F7D8"/>
<path d="M240.781 283.919C241.334 283.206 241.808 282.493 242.203 281.702C242.598 280.91 242.756 280.039 242.598 279.247L242.519 279.01H242.756L249.076 279.168C250.103 279.168 251.209 279.247 252.236 279.326L255.396 279.485H255.712L255.791 279.802C256.265 282.098 256.66 284.473 257.134 286.769L257.213 287.006L256.976 287.165C255.554 287.956 254.132 288.432 252.631 288.827C251.13 289.223 249.55 289.302 247.97 289.144C246.39 288.986 244.889 288.352 243.704 287.481C242.44 286.531 241.413 285.265 240.781 283.919ZM240.781 283.919C241.571 285.185 242.598 286.373 243.862 287.165C245.126 287.956 246.548 288.511 248.049 288.59C249.55 288.748 251.051 288.511 252.473 288.115C253.895 287.719 255.317 287.165 256.581 286.452L256.423 286.848C255.949 284.552 255.554 282.177 255.159 279.881L255.475 280.197L252.315 280.039C251.288 279.96 250.182 279.96 249.155 279.881L242.835 279.406L242.993 279.168C243.072 280.118 242.835 280.989 242.361 281.781C241.887 282.652 241.334 283.285 240.781 283.919Z" fill="#30526D"/>
<path d="M284.861 280.91C284.861 280.91 286.362 287.481 287.231 290.411C287.231 290.411 280.911 294.211 275.461 289.619V280.514L284.861 280.91Z" fill="#F6F7D8"/>
<path d="M284.861 280.91L286.204 285.661C286.599 287.244 287.073 288.828 287.547 290.411L287.626 290.649L287.389 290.728C286.441 291.282 285.414 291.678 284.387 291.915C283.36 292.153 282.254 292.311 281.228 292.311C280.122 292.311 279.095 292.074 278.068 291.678C277.041 291.361 276.172 290.649 275.303 290.015L275.145 289.936V289.778C275.145 286.769 275.145 283.76 275.224 280.673V280.356H275.54C277.12 280.435 278.7 280.514 280.28 280.593L284.861 280.91ZM284.861 280.91H280.122C278.542 280.91 277.041 280.91 275.461 280.91L275.777 280.593C275.856 283.602 275.856 286.611 275.856 289.699L275.698 289.382C276.488 290.015 277.357 290.569 278.305 290.886C279.253 291.282 280.201 291.52 281.228 291.52C282.254 291.599 283.281 291.44 284.229 291.203C285.177 290.965 286.204 290.649 287.073 290.174L286.915 290.49C286.52 288.907 286.125 287.323 285.73 285.661C285.493 284.077 285.098 282.494 284.861 280.91Z" fill="#30526D"/>
<path d="M240.07 282.414L240.781 281.543C240.781 281.543 244.494 289.54 256.975 284.948C256.975 284.948 261.004 289.936 257.923 295.478L258.16 299.833H245.205L244.968 297.378L234.856 299.278C234.856 299.278 221.111 302.129 210.762 296.745L210.841 294.924C210.841 294.924 209.657 292.232 215.107 291.361C215.028 291.44 234.303 290.649 240.07 282.414Z" fill="#384269"/>
<path d="M256.817 299.595L257.449 298.249C257.449 298.249 256.501 295.716 260.056 294.686C260.056 294.686 264.48 293.974 268.351 289.936C268.351 289.936 272.222 286.135 273.565 283.76C273.565 283.76 284.071 290.886 286.362 287.402C286.362 287.402 290.075 291.915 288.337 297.616L288.416 301.97C288.416 301.97 284.861 303.079 282.333 302.366L282.254 300.07L276.882 302.604L263.137 303C263.137 303 259.661 302.762 256.817 299.595Z" fill="#384269"/>
<path d="M237.384 283.285C237.384 283.285 239.359 238.71 239.28 233.96L238.016 203.319L230.354 174.421C226.246 164.603 225.693 139.109 230.038 138.396L282.807 137.446C282.807 137.446 288.574 149.877 284.703 172.125L288.337 199.836C288.337 199.836 292.129 242.986 291.497 259.216L290.944 286.373C285.651 288.194 276.33 287.561 269.694 285.977L268.351 230.714L265.981 218.362L261.399 204.349C261.399 204.349 262.979 231.268 262.031 237.443C262.031 237.443 259.661 276.872 258.16 284.235C258.239 284.077 245.916 287.482 237.384 283.285Z" fill="#0E161F"/>
<path d="M247.18 173.946C247.18 173.946 251.604 180.992 256.028 182.259L261.478 204.27C261.478 204.19 244.494 181.942 247.18 173.946Z" fill="#F6F7D8"/>
<path d="M247.18 173.946C247.733 174.817 248.365 175.608 249.076 176.4C249.708 177.192 250.419 177.984 251.13 178.696C251.841 179.409 252.631 180.121 253.421 180.676C254.211 181.23 255.159 181.784 256.107 182.022H256.265V182.18C257.213 185.822 258.16 189.464 259.108 193.185L261.873 204.19L262.347 206.091L261.162 204.507C259.424 202.211 257.845 199.836 256.265 197.461C254.685 195.085 253.184 192.631 251.841 190.097C250.498 187.564 249.234 185.03 248.207 182.338C247.733 180.992 247.338 179.646 247.101 178.221C246.785 176.796 246.706 175.292 247.18 173.946ZM247.18 173.946C246.785 175.292 246.943 176.796 247.259 178.142C247.575 179.488 248.049 180.834 248.523 182.18C249.55 184.793 250.893 187.326 252.315 189.781C255.159 194.689 258.318 199.44 261.715 203.953L261.004 204.27L258.318 193.264C257.45 189.622 256.581 185.901 255.712 182.259L255.87 182.417C254.843 182.101 253.974 181.547 253.105 180.913C252.236 180.28 251.525 179.567 250.814 178.775C249.471 177.35 248.286 175.688 247.18 173.946Z" fill="#30526D"/>
<path d="M274.197 185.822C271.274 185.822 268.351 185.901 265.428 186.059C264.717 186.059 264.006 186.139 263.216 186.218C262.821 186.218 262.505 186.297 262.11 186.297C261.715 186.297 261.32 186.218 260.925 186.139C259.346 185.664 258.003 184.159 257.924 182.259C257.687 179.33 257.45 176.4 257.292 173.471L257.213 171.254V170.7C257.213 170.462 257.213 170.383 257.213 170.066C257.213 169.512 257.292 169.037 257.529 168.483C257.845 167.453 258.556 166.583 259.425 165.949C260.294 165.316 261.32 164.999 262.426 164.999C265.349 164.999 268.272 165.078 271.195 165.237C271.906 165.237 272.617 165.316 273.407 165.395L274.592 165.474C275.066 165.553 275.54 165.632 276.014 165.87C277.831 166.662 278.937 168.562 278.779 170.383C278.542 173.312 278.305 176.242 278.147 179.171L278.068 181.388C278.068 182.101 278.068 182.892 277.752 183.605C277.12 184.872 275.698 185.901 274.197 185.822ZM274.197 185.822C275.698 185.822 277.041 184.793 277.515 183.447C277.752 182.734 277.673 182.021 277.673 181.309L277.594 179.092C277.436 176.163 277.199 173.233 276.962 170.304C276.883 169.195 276.014 168.245 275.066 168.008C274.829 167.928 274.592 167.928 274.355 167.928L273.328 168.008C272.617 168.087 271.906 168.087 271.116 168.166C268.193 168.324 265.27 168.404 262.347 168.404C261.557 168.404 260.767 168.879 260.53 169.67C260.451 169.829 260.373 170.066 260.373 170.225C260.373 170.304 260.373 170.541 260.373 170.7V171.254L260.294 173.471C260.136 176.4 259.899 179.33 259.662 182.259C259.504 183.367 260.215 184.634 261.32 185.188C261.636 185.347 261.952 185.426 262.268 185.426C262.584 185.426 262.979 185.505 263.374 185.505C264.085 185.584 264.796 185.584 265.586 185.664C268.351 185.743 271.274 185.822 274.197 185.822Z" fill="#30526D"/>
<path d="M291.418 211.079H245.205C243.704 211.079 242.44 209.812 242.44 208.308V177.588C242.44 176.084 243.704 174.817 245.205 174.817H291.418C292.919 174.817 294.183 176.084 294.183 177.588V208.308C294.183 209.812 292.919 211.079 291.418 211.079Z" fill="#F6F7D8"/>
<path d="M291.418 211.079L270.01 211.158L248.602 211.316H245.916C245.442 211.316 245.047 211.316 244.573 211.237C244.099 211.158 243.625 210.92 243.309 210.604C242.914 210.287 242.598 209.891 242.44 209.495C242.203 209.02 242.203 208.545 242.203 208.07V205.378L242.124 194.69V184.001V178.617C242.124 178.142 242.124 177.746 242.124 177.271C242.203 176.796 242.361 176.242 242.677 175.846C243.23 174.975 244.257 174.421 245.284 174.421L266.692 174.5L288.1 174.658H290.786C291.26 174.658 291.655 174.658 292.129 174.738C292.603 174.817 292.998 175.054 293.393 175.371C294.104 175.925 294.499 176.954 294.499 177.825V180.517L294.42 191.206V201.894V207.278C294.42 207.753 294.42 208.149 294.42 208.624C294.341 209.099 294.183 209.495 293.946 209.891C293.156 210.604 292.287 211.079 291.418 211.079ZM291.418 211.079C292.287 211.079 293.156 210.604 293.709 209.891C293.946 209.495 294.104 209.099 294.183 208.624C294.183 208.149 294.183 207.753 294.183 207.278V201.894V191.206L294.104 180.517V177.825C294.183 176.954 293.788 176.084 293.156 175.609C292.84 175.371 292.445 175.133 292.05 175.054C291.655 174.975 291.181 175.054 290.786 175.054H288.1L266.692 175.213L245.284 175.292C244.494 175.292 243.783 175.688 243.309 176.321C243.072 176.638 242.993 177.034 242.914 177.35C242.914 177.746 242.914 178.221 242.914 178.617V184.001V194.69L242.835 205.378V208.07C242.756 208.941 243.151 209.733 243.783 210.287C244.099 210.524 244.494 210.762 244.889 210.841C245.284 210.92 245.758 210.92 246.153 210.92H248.839L270.247 211.079H291.418Z" fill="#30526D"/>
<path d="M291.418 176.321H245.205C243.704 176.321 242.44 177.588 242.44 179.092V183.922L268.272 192.472L294.104 183.922V179.092C294.183 177.508 292.919 176.321 291.418 176.321Z" fill="#F6F7D8"/>
<path d="M291.418 176.321L277.594 176.4L263.769 176.558L249.945 176.717H246.469H245.6C245.284 176.717 245.047 176.717 244.81 176.717C244.336 176.796 243.862 177.033 243.467 177.429C243.151 177.825 242.914 178.3 242.835 178.775C242.835 179.013 242.835 179.329 242.835 179.567V180.438V183.921L242.598 183.526C246.943 184.951 251.209 186.376 255.554 187.801C259.898 189.226 264.164 190.651 268.43 192.156H268.272L281.228 188.039C285.572 186.693 289.838 185.267 294.183 183.842V179.25C294.262 178.458 294.025 177.746 293.472 177.192C292.919 176.637 292.208 176.321 291.418 176.321ZM291.418 176.321C292.208 176.321 292.919 176.637 293.472 177.192C294.025 177.746 294.262 178.538 294.183 179.329V183.921C289.838 185.347 285.572 186.772 281.307 188.276L268.43 192.631H268.351H268.272C263.927 191.285 259.662 189.86 255.317 188.434C250.972 187.009 246.706 185.663 242.361 184.159L242.124 184.08V183.842V180.359V179.488C242.124 179.171 242.124 178.933 242.124 178.538C242.203 177.904 242.519 177.271 242.993 176.796C243.467 176.321 244.02 176.004 244.731 175.925C244.889 175.925 245.047 175.925 245.205 175.846H245.6H246.469H249.945L263.769 176.004L277.594 176.162L291.418 176.321Z" fill="#30526D"/>
<path d="M294.183 182.18V177.35C294.183 175.846 292.919 174.579 291.418 174.579H245.205C243.704 174.579 242.44 175.846 242.44 177.35V182.18" fill="#F6F7D8"/>
<path d="M294.183 182.18L294.104 178.142C294.104 177.825 294.104 177.429 294.104 177.112C294.104 176.796 293.946 176.479 293.788 176.242C293.472 175.687 292.998 175.212 292.445 174.975C292.129 174.896 291.813 174.816 291.497 174.816H290.47H288.495L284.466 174.896C279.095 174.975 273.723 174.975 268.351 174.975L252.236 174.896L248.207 174.816H246.232H245.205C244.889 174.816 244.573 174.896 244.257 174.975C243.704 175.212 243.151 175.608 242.914 176.242C242.756 176.558 242.677 176.796 242.598 177.112C242.598 177.429 242.598 177.746 242.598 178.142L242.519 182.18L242.44 178.142C242.44 177.825 242.44 177.508 242.44 177.112C242.44 176.796 242.519 176.4 242.677 176.083C242.993 175.45 243.546 174.896 244.178 174.658C244.494 174.5 244.889 174.421 245.205 174.421H246.232H248.207L252.236 174.341L268.351 174.262C273.723 174.262 279.095 174.262 284.466 174.341L288.495 174.421H290.47H291.497C291.892 174.421 292.208 174.5 292.524 174.658C293.156 174.975 293.709 175.45 294.025 176.083C294.183 176.4 294.262 176.717 294.262 177.112C294.262 177.508 294.262 177.825 294.262 178.142L294.183 182.18Z" fill="#30526D"/>
<path d="M270.642 157.319C270.642 157.319 270.642 157.24 270.642 157.319C270.721 157.24 270.721 157.24 270.642 157.319Z" fill="#F6F7D8"/>
<path d="M270.642 157.319C270.563 157.398 270.563 157.398 270.484 157.319C270.405 157.319 270.326 157.161 270.326 157.082L271.116 157.24H270.879L270.8 157.398C270.642 157.398 270.642 157.319 270.642 157.319ZM270.642 157.319C270.721 157.24 270.642 157.161 270.563 157.161L270.484 157.319H270.247L271.037 157.477C271.037 157.398 270.958 157.319 270.879 157.319C270.8 157.24 270.721 157.24 270.642 157.319Z" fill="#30526D"/>
<path d="M274.513 156.844C274.434 156.765 274.355 156.765 274.276 156.686C274.355 156.765 274.434 156.844 274.513 156.844Z" fill="#F6F7D8"/>
<path d="M274.513 156.844C274.513 156.844 274.434 156.844 274.513 156.844C274.513 156.844 274.513 156.923 274.434 157.003C274.434 157.082 274.355 157.082 274.276 157.082C274.197 157.082 274.118 157.082 274.118 157.082L274.513 156.369C274.592 156.369 274.592 156.448 274.592 156.528C274.592 156.607 274.592 156.686 274.592 156.765C274.513 156.844 274.513 156.844 274.513 156.844C274.513 156.844 274.434 156.844 274.513 156.844ZM274.513 156.844C274.513 156.844 274.434 156.844 274.434 156.765C274.355 156.765 274.276 156.765 274.276 156.765C274.197 156.765 274.197 156.844 274.197 156.923C274.197 157.003 274.197 157.003 274.197 157.003L274.592 156.29C274.592 156.29 274.513 156.29 274.513 156.369C274.513 156.369 274.434 156.448 274.434 156.528C274.434 156.607 274.434 156.686 274.513 156.686C274.434 156.844 274.434 156.844 274.513 156.844Z" fill="#30526D"/>
<path d="M270.8 155.815L271.116 155.894C271.037 155.894 270.879 155.894 270.8 155.815Z" fill="#F6F7D8"/>
<path d="M270.8 155.815C270.642 155.657 271.037 155.419 271.274 155.498L274.513 156.448L271.195 156.211C271.116 156.211 271.037 156.132 270.879 155.973L270.721 155.894C270.721 155.815 270.8 155.736 270.8 155.815ZM270.8 155.815C270.879 155.894 270.958 155.894 270.958 155.815L270.8 155.736C270.958 155.577 271.037 155.498 271.116 155.498L270.958 156.29C270.958 156.29 270.958 156.211 270.958 156.132C271.037 156.052 270.958 155.894 270.8 155.815Z" fill="#30526D"/>
<path d="M261.952 162.307C261.873 162.307 260.372 166.345 257.529 166.028C254.606 165.711 258.003 163.97 258.477 163.178C258.951 162.465 259.03 161.674 259.819 159.932C260.293 158.902 261.794 157.477 262.031 157.161C263.927 155.102 265.744 154.706 266.297 154.469H266.376C266.771 154.231 268.114 153.914 268.825 154.152C269.615 154.39 272.696 155.26 272.696 155.26C272.696 155.26 274.434 156.131 275.382 157.556C276.646 159.219 274.987 164.761 274.987 164.761L274.829 165.395C274.829 165.87 274.829 166.582 274.671 167.77C274.592 168.641 274.355 169.274 274.118 169.67C273.723 170.304 273.565 170.462 272.854 170.383C272.538 170.383 272.301 170.224 272.064 170.066C271.985 170.541 271.906 170.858 271.59 171.333C271.274 171.808 270.01 172.204 269.22 171.412C268.983 171.174 268.825 170.779 268.746 170.304C268.509 171.016 268.114 172.045 266.929 171.966C266.297 171.887 265.744 171.412 265.507 170.779C264.559 172.045 262.821 171.887 262.426 170.541C262.189 169.67 262.189 168.878 262.426 167.849C262.268 166.899 262.268 166.424 262.11 164.999C262.11 163.574 261.952 162.307 261.952 162.307Z" fill="#FED7A8"/>
<path d="M277.278 152.015C277.278 151.935 277.357 151.856 277.357 151.856L269.141 148.531L268.904 148.452C268.904 148.452 268.43 150.431 268.193 151.539C267.956 152.49 266.692 154.231 266.455 154.548C266.455 154.548 269.22 154.627 271.037 155.181C271.195 155.261 271.353 155.261 271.511 155.34C271.511 155.34 271.511 155.34 271.59 155.34C273.407 156.052 275.619 157.557 275.619 157.557C275.619 157.557 276.33 155.973 276.883 154.548C277.199 153.598 277.752 152.015 277.752 152.015H277.278Z" fill="#FED7A8"/>
<path d="M241.65 48.4545C241.334 48.4545 241.018 46.871 244.494 44.8916L260.293 34.4406C260.293 34.4406 263.058 34.2031 263.453 35.6282C263.374 35.6282 257.765 46.7918 241.65 48.4545Z" fill="#30526D"/>
<path d="M169.921 117.336L177.821 113.536C177.821 113.536 180.27 112.19 182.403 113.536L186.432 114.802L193.383 112.981L195.99 111.952L198.834 121.453L190.697 123.828C190.697 123.828 190.934 127.549 187.854 127.708H186.827C186.827 127.708 187.301 130.796 184.378 130.162C184.378 130.162 184.062 132.775 182.324 132.458C182.324 132.458 181.929 134.279 179.322 132.458C179.322 132.458 177.821 133.646 176.557 132.062C176.478 132.142 165.419 123.116 169.921 117.336Z" fill="#FED7A8"/>
<path d="M189.275 113.615C188.248 112.982 204.838 109.102 217.003 99.3637C217.003 99.3637 219.531 97.3052 222.77 89.2294C222.77 89.2294 231.223 65.7147 232.25 63.2603C232.25 63.2603 236.831 55.1053 241.729 59.6974C241.729 59.6974 246.311 64.7646 245.837 75.9281C245.837 75.9281 245.442 93.6632 239.28 100.076C239.28 100.076 234.224 109.34 228.774 113.14C223.323 116.94 210.368 123.749 193.067 124.462C192.988 124.62 194.41 117.02 189.275 113.615Z" fill="#F68A5F"/>
<path d="M232.803 7.99658C232.803 7.99658 223.244 31.6697 230.117 32.3031C230.117 32.3031 228.379 39.6663 231.539 40.1413C231.539 40.1413 236.515 41.2498 239.043 41.4873C239.043 41.4873 242.914 42.3582 244.336 49.8798V51.0674L262.663 41.0123C262.663 41.0123 258.792 35.2325 259.424 27.711L254.685 15.7557L244.02 8.70915L232.803 7.99658Z" fill="#FED7A8"/>
<path d="M229.722 76.0865C230.354 71.8111 230.196 59.1433 241.255 51.8592C241.808 51.8592 241.887 50.3549 241.887 49.8799C241.808 49.1673 240.702 47.3463 242.361 46.9504C248.207 45.7628 256.027 41.4874 263.374 35.5493C263.374 35.5493 267.087 39.3497 272.222 40.7748C274.118 41.2499 279.015 42.675 282.254 46.1587C285.493 49.6423 289.996 60.1725 289.996 60.1725L293.867 91.7631L294.499 100.868L285.414 118.286L283.597 139.743C283.597 139.743 268.114 137.684 245.126 142.989C241.966 143.701 230.196 141.88 228.774 139.505C228.774 139.505 229.801 133.805 229.801 131.667C229.801 131.35 229.248 83.8456 229.722 76.0865Z" fill="#E57852"/>
<path d="M230.038 14.0138C230.038 14.0138 214.554 5.54215 243.783 0.237472C243.783 0.237472 255.001 -1.66271 260.609 5.14628C260.609 5.14628 267.324 12.1136 263.058 23.5939L259.977 32.4614C259.977 32.4614 254.527 32.2239 251.367 26.0483C251.367 26.0483 255.001 16.9432 248.681 17.1808C248.128 17.1808 244.494 17.735 245.205 23.198C245.205 23.2772 231.46 10.8468 230.038 14.0138Z" fill="#914F22"/>
<path d="M279.885 44.3377C279.885 44.3377 290.391 50.3549 292.05 63.8145C292.524 67.8524 297.106 98.4137 295.763 108.073C295.131 112.903 278.384 156.132 277.278 155.419C277.278 155.419 267.403 154.627 266.929 151.856C266.376 148.531 272.301 120.424 274.987 109.577C274.987 109.577 276.251 106.885 274.592 102.135C274.434 101.66 264.875 67.8524 265.191 60.4101C265.191 60.3309 267.403 42.9917 279.885 44.3377Z" fill="#F68A5F"/>
<path d="M20.5389 278.852C20.5389 278.852 19.196 285.027 19.986 287.482C19.986 287.482 24.4098 291.282 32.0724 289.144C32.0724 289.144 37.7602 287.561 39.6561 287.482C43.8429 287.323 49.2147 288.907 56.0084 283.84C57.8253 282.494 62.1701 276.714 55.6924 274.735C53.8755 274.18 52.2955 274.418 48.2667 276.318C44.7909 277.981 39.6561 279.485 32.7834 276.714L20.7759 276.318L20.5389 278.852Z" fill="#101724"/>
<path d="M32.7832 283.681C32.7832 283.681 33.7312 287.007 32.7832 290.174C32.7832 290.174 41.8678 295.558 48.8195 289.224C48.8195 289.224 46.7656 280.989 47.2396 278.614L32.7832 283.681Z" fill="#F6F7D8"/>
<path d="M32.7833 283.681C33.0993 284.711 33.2573 285.819 33.3362 286.928C33.4152 288.036 33.2573 289.144 33.0203 290.253L32.9413 290.015C34.2052 290.649 35.5482 291.124 36.8911 291.52C38.234 291.836 39.656 291.995 41.0779 291.995C42.4998 291.995 43.8428 291.678 45.1067 291.203C46.4497 290.728 47.5556 289.857 48.5826 288.986L48.5036 289.382C48.0296 287.64 47.7136 285.898 47.3976 284.077C47.2396 283.206 47.0816 282.256 47.0026 281.385C46.9237 280.435 46.8447 279.564 47.0026 278.614L47.4766 279.01C45.1067 279.802 42.6578 280.594 40.2879 281.385L32.7833 283.681ZM32.7833 283.681L39.893 280.989C42.3419 280.119 44.7117 279.168 47.1606 278.298L47.7136 278.139L47.6346 278.693C47.5556 279.485 47.6346 280.435 47.7136 281.306C47.7926 282.177 47.9506 283.048 48.1086 283.919C48.4246 285.661 48.8196 287.403 49.2146 289.144L49.2935 289.382L49.1356 289.54C47.9506 290.49 46.7657 291.361 45.3437 291.836C44.0008 292.391 42.4998 292.628 40.9989 292.628C39.498 292.628 38.076 292.391 36.6541 291.995C35.2322 291.599 33.8892 291.045 32.6253 290.332L32.4673 290.253L32.5463 290.094C32.8623 289.065 33.0203 287.957 33.0203 286.928C33.0993 285.819 33.0203 284.711 32.7833 283.681Z" fill="#30526D"/>
<path d="M61.3011 163.416L60.5111 153.282L58.4572 128.025L21.5659 129.688V144.889L23.7778 161.516C24.0937 166.583 24.6467 175.371 24.9627 179.251C24.9627 179.251 24.5677 209.733 24.8837 217.254C24.8837 217.254 17.3 240.611 21.4079 271.964L20.6179 278.852C20.6179 278.852 30.4925 281.781 37.9971 278.852C37.9971 278.852 42.1839 232.06 44.0009 226.359C44.0009 226.359 50.5576 219.709 50.8736 207.358C50.8736 207.358 57.9043 195.402 59.7212 182.18C59.6422 182.022 61.9331 167.295 61.3011 163.416Z" fill="#162E4F"/>
<path d="M72.8345 124.7L79.2333 126.046L81.6822 126.916C81.6822 126.916 84.526 128.025 82.0771 132.142L80.5762 134.28L80.0232 135.309C80.0232 135.309 79.9442 136.417 78.9173 136.497L78.2853 136.655C78.2853 136.655 75.9944 139.347 74.4935 138.318L70.3856 135.23L69.0427 133.013C69.0427 133.013 65.4089 126.521 68.6477 125.095C68.6477 124.937 70.2277 124.066 72.8345 124.7Z" fill="#FED7A8"/>
<path d="M58.4573 101.897L72.8346 124.62C72.8346 124.62 67.7789 123.195 67.0679 127.233C67.0679 127.233 67.9369 131.429 70.2278 134.596L66.2779 133.646C66.2779 133.646 65.488 133.013 63.4341 132.696L61.7751 132.142L58.6153 118.207L58.4573 101.897Z" fill="#B3CDEB"/>
<path d="M41.7891 60.8848L45.1859 61.8349C45.1859 61.8349 52.3746 63.8142 53.7965 68.723C53.7965 68.723 56.1664 76.878 56.2454 77.9864C56.2454 77.9864 59.4843 93.7421 58.6943 96.434L57.9044 101.264L51.9796 77.8281L41.7891 60.8848Z" fill="#B3CDEB"/>
<path d="M50.4786 285.661C38.7872 289.699 30.4135 286.136 30.4135 286.136L29.3866 257.554C27.2537 243.302 29.3866 220.659 29.3866 220.659C25.6737 207.357 24.8048 197.698 22.6719 190.335C22.1979 188.751 21.5659 185.822 20.8549 182.259C18.801 172.283 16.1152 157.715 16.1152 157.715H16.2731L13.6663 144.889L17.1421 129.925L54.1915 128.816L54.5075 146.789C54.5865 147.818 54.5865 148.848 54.5075 150.035C56.7984 163.574 53.9545 187.722 53.9545 187.722C53.9545 187.722 52.4536 210.208 51.2686 218.125C50.3996 223.905 49.4517 241.006 49.4517 241.006L50.4786 285.661Z" fill="#24407A"/>
<path d="M2.13272 120.424C2.6067 127.312 6.55653 129.767 6.55653 129.767L11.6913 132.3L10.9013 140.138L8.53144 164.049C14.6932 166.345 37.8392 166.503 37.8392 166.503C48.3457 167.612 50.3206 159.536 50.3206 159.536L52.2955 132.063L52.9275 112.902V111.952L51.6635 106.41L47.7927 93.3464L42.9739 80.5993L38.2341 71.4943C35.8642 67.1397 29.2285 58.5888 29.2285 58.5888C24.8837 53.205 20.6969 51.7007 20.6969 51.7007L18.722 56.1344L19.275 56.5303L6.24054 67.4564C-2.29108 74.6612 0.315803 99.2053 2.13272 120.424Z" fill="#9CBAE2"/>
<path d="M36.4172 18.3682C36.4172 18.3682 42.7369 18.4473 44.7118 27.5524C44.7118 27.5524 54.5864 39.1118 48.8196 38.8743C48.8196 38.8743 47.8717 42.1996 49.6886 46.3959C49.6886 46.3959 51.4265 51.7005 45.0278 52.2548C45.0278 52.2548 43.2109 52.2548 41.1569 52.0964C41.1569 52.0964 39.814 52.3339 40.288 54.2341L40.051 61.2015C40.051 61.2015 39.735 64.2893 42.1839 66.7437L43.0529 67.2979C43.0529 67.2979 44.6328 79.7282 44.7118 79.8866C44.7118 79.9658 37.7601 69.9106 37.7601 69.9106L27.4906 55.3426L22.1188 49.7212L21.4868 47.5043L22.9878 34.1238L25.5946 22.3269L30.5714 18.4473H36.4172V18.3682Z" fill="#FED7A8"/>
<path d="M20.0649 54.5512L22.1189 49.8008L38.9451 58.1141C38.9451 58.1141 40.683 59.3809 39.4981 61.8353L40.762 67.7733L42.342 73.7114L44.9488 80.4412L47.2397 90.338L47.7137 95.4052L26.0687 59.46L20.0649 54.5512Z" fill="#9CBAE2"/>
<path d="M38.8661 19.0809C38.8661 19.0809 39.3401 12.747 23.6198 16.8641C23.6198 16.8641 12.4023 20.3477 14.0612 28.8194C14.4562 31.5905 17.695 40.0621 21.4079 47.1878L21.8029 48.613C21.8029 48.613 26.2267 42.8332 26.0687 38.3203C26.0687 38.3203 24.5677 33.7282 27.8856 33.8074C27.8856 33.8074 31.0455 33.9657 32.8624 37.291L35.3903 36.1826C35.3903 36.1826 33.0204 28.0276 36.1802 23.5147C36.1802 23.5147 30.9665 21.2187 34.2053 19.556C34.2053 19.4768 35.7063 19.3976 38.8661 19.0809Z" fill="#914F22"/>
<path d="M32.2303 44.2583C32.2303 44.2583 33.8102 48.9296 41.1569 51.7799C41.1569 51.7799 39.8139 51.9382 40.2879 53.9176L40.2089 56.847C40.2089 56.9262 30.2554 53.5217 32.2303 44.2583Z" fill="#F0C79C"/>
<path d="M50.9526 118.207C51.7815 118.207 52.4535 117.534 52.4535 116.703C52.4535 115.872 51.7815 115.199 50.9526 115.199C50.1237 115.199 49.4517 115.872 49.4517 116.703C49.4517 117.534 50.1237 118.207 50.9526 118.207Z" fill="#30526D"/>
<path d="M20.8549 53.0465L22.1189 49.7212C22.1189 49.7212 36.4962 56.3718 38.9451 58.0345L35.3113 63.4975L20.0649 54.5508L20.8549 53.0465Z" fill="#B3CDEB"/>
<path d="M69.0427 132.855L81.9192 123.829L100.72 104.668C100.72 104.668 106.013 115.119 105.855 117.416C105.855 117.416 79.1543 135.309 73.9405 136.576L72.0446 137.763L69.0427 132.855Z" fill="#F6F7D8"/>
<path d="M69.0427 132.855L81.8402 123.67L91.1618 114.011L100.562 104.431L100.957 104.035L101.194 104.51C102.221 106.569 103.248 108.627 104.196 110.765C104.67 111.794 105.144 112.903 105.539 113.932C105.776 114.486 105.934 115.04 106.092 115.595C106.171 115.911 106.25 116.149 106.329 116.466C106.408 116.782 106.408 117.099 106.408 117.416V117.574L106.25 117.653C103.643 119.395 101.036 121.058 98.4294 122.72C95.8225 124.383 93.2157 126.046 90.5298 127.708C87.8439 129.371 85.237 130.954 82.4721 132.459C81.1292 133.25 79.7862 133.963 78.3643 134.676C77.6533 134.992 76.9424 135.388 76.2314 135.705C75.8364 135.863 75.5204 136.022 75.1255 136.18L74.0195 136.576L72.1236 137.684L72.0446 137.763L71.9656 137.684L69.0427 132.855ZM69.0427 132.855L72.1236 137.684H71.9656L73.8615 136.497L74.9675 136.101C75.2835 135.942 75.6784 135.784 75.9944 135.626C76.7054 135.309 77.3374 134.913 78.0483 134.517C79.3913 133.805 80.7342 133.013 82.0772 132.221C84.763 130.638 87.3699 128.975 89.9768 127.312C95.1906 123.987 100.404 120.583 105.618 117.099L105.46 117.416C105.46 116.941 105.302 116.386 105.144 115.832C104.986 115.278 104.828 114.724 104.591 114.249C104.196 113.219 103.722 112.111 103.248 111.082C102.3 109.023 101.352 106.885 100.325 104.906L100.957 104.985L91.4777 114.486L81.9982 123.987L69.0427 132.855Z" fill="#30526D"/>
<path d="M40.367 54.2344L45.1858 58.3514C45.1858 58.3514 45.5018 59.1432 45.1858 61.8351L41.631 60.4891L52.1375 79.8868L54.2704 89.3086L56.3243 103.956L57.8253 118.761L58.3783 128.342L52.2955 128.579L52.7695 112.19L50.0836 101.976L47.3187 92.4756L47.1607 90.5754L44.7119 80.1244C44.7119 80.1244 42.263 74.1863 40.762 69.515L40.2091 64.9229L39.3401 61.8351L39.8141 59.3015L40.367 54.2344Z" fill="white"/>
<path d="M40.3669 59.1431V63.9727L49.1356 77.9074L51.0315 86.379L56.3242 121.453L57.1142 136.892L61.064 160.882C61.064 160.882 63.1179 164.682 63.9079 161.278C63.9079 161.278 65.8038 154.311 66.0408 152.015L64.3819 137.446L60.5111 121.928C60.5111 121.928 58.2992 107.756 58.9311 104.985L58.3782 96.0383C58.3782 96.0383 56.7192 84.8747 52.7694 76.5614C52.8484 76.7989 45.6597 62.6267 40.3669 59.1431Z" fill="#9CBAE2"/>
<path d="M49.0565 131.271L53.6383 132.617C53.6383 132.617 58.6151 131.746 61.854 132.3C61.854 132.3 65.3298 133.171 66.3568 133.805C66.3568 133.805 71.7285 135.309 73.3875 136.101C74.1774 136.496 75.5994 137.447 73.3085 139.584C73.3085 139.584 68.8057 137.684 67.4627 138.555C67.4627 138.555 69.2796 139.347 71.2545 139.584L71.8075 140.376C71.8075 140.376 71.4125 143.226 69.3586 142.276C69.3586 142.276 69.5956 145.443 66.5938 144.414C66.5938 144.414 67.4627 146.393 64.6188 146.71C64.6188 146.71 60.511 146.948 57.9831 145.681C57.9831 145.681 52.7694 143.464 51.6634 141.96L45.6597 140.139L49.0565 131.271Z" fill="#FED7A8"/>
<path d="M7.03049 130.004L43.0529 147.343C47.8717 143.147 50.2416 131.588 50.2416 131.588C33.0993 126.996 20.6969 116.861 20.6969 116.861C23.3828 112.032 25.5947 89.0711 25.5947 89.0711C26.2266 82.3413 23.2248 75.2948 23.2248 75.2948C19.4329 65.6356 10.0324 65.8731 10.0324 65.8731C-4.89799 68.2483 1.02675 104.985 1.97471 117.97C2.1327 123.908 3.55464 128.025 7.03049 130.004Z" fill="#B3CDEB"/>
<path d="M39.2611 144.889C39.8283 144.889 40.288 144.428 40.288 143.86C40.288 143.291 39.8283 142.831 39.2611 142.831C38.6939 142.831 38.2341 143.291 38.2341 143.86C38.2341 144.428 38.6939 144.889 39.2611 144.889Z" fill="#F6F7D8"/>
<path d="M36.9701 143.78C37.5372 143.78 37.997 143.319 37.997 142.751C37.997 142.183 37.5372 141.722 36.9701 141.722C36.4029 141.722 35.9431 142.183 35.9431 142.751C35.9431 143.319 36.4029 143.78 36.9701 143.78Z" fill="#F6F7D8"/>
<path d="M34.6793 142.672C35.2465 142.672 35.7063 142.211 35.7063 141.643C35.7063 141.074 35.2465 140.613 34.6793 140.613C34.1121 140.613 33.6523 141.074 33.6523 141.643C33.6523 142.211 34.1121 142.672 34.6793 142.672Z" fill="#F6F7D8"/>
<path d="M32.5465 141.643C33.1137 141.643 33.5734 141.182 33.5734 140.613C33.5734 140.045 33.1137 139.584 32.5465 139.584C31.9793 139.584 31.5195 140.045 31.5195 140.613C31.5195 141.182 31.9793 141.643 32.5465 141.643Z" fill="#F6F7D8"/>
<path d="M40.3669 53.9966L45.1857 58.1136C45.1857 58.1136 45.9757 59.2221 45.1857 61.8348C45.1857 61.8348 42.2629 61.6765 40.3669 59.2221V53.9966Z" fill="#9CBAE2"/>
<path d="M32.4674 286.69C32.4674 286.69 30.1765 291.045 31.3614 295.795L31.4404 300.07C31.4404 300.07 36.9702 301.575 39.1821 300.229C39.1821 300.229 44.4749 301.02 60.4322 300.308C60.4322 300.308 67.0679 300.229 71.5707 296.191L70.9387 294.607C70.9387 294.607 71.0967 291.045 65.5669 291.282C65.5669 291.282 52.4535 291.52 48.8987 286.294C48.9777 286.215 42.342 289.144 32.4674 286.69Z" fill="#101724"/>
<path d="M90.6879 273.943C90.6879 273.943 89.3449 280.514 90.1349 282.968C90.1349 282.968 94.7167 286.927 102.616 284.789C102.616 284.789 108.462 283.127 110.437 283.048C114.782 282.889 120.312 284.552 127.342 279.168C129.238 277.743 133.741 271.726 127.026 269.588C125.13 269.034 123.55 269.271 119.364 271.251C115.73 272.993 110.516 274.655 103.406 271.647L91.0829 271.33L90.6879 273.943Z" fill="#101724"/>
<path d="M103.643 280.435C103.643 280.435 104.907 284.473 103.643 288.274C103.643 288.274 114.94 294.766 124.261 287.165C124.261 287.165 121.497 277.268 122.207 274.339L103.643 280.435Z" fill="#F6F7D8"/>
<path d="M103.643 280.435C104.038 281.702 104.275 283.048 104.275 284.315C104.275 284.948 104.275 285.661 104.196 286.294C104.117 286.928 103.959 287.64 103.801 288.274L103.722 288.036C105.302 288.828 107.04 289.461 108.778 289.857C110.516 290.253 112.333 290.411 114.15 290.411C115.967 290.411 117.705 290.015 119.364 289.382C121.102 288.828 122.524 287.799 123.945 286.769L123.787 287.165C123.235 285.027 122.761 282.969 122.287 280.831C122.05 279.723 121.892 278.693 121.734 277.585C121.655 276.477 121.497 275.368 121.655 274.26L122.129 274.656C119.048 275.685 115.967 276.556 112.886 277.585L103.643 280.435ZM103.643 280.435L112.728 277.189C115.809 276.16 118.89 275.051 122.05 273.943L122.603 273.785L122.524 274.339C122.366 275.289 122.445 276.397 122.603 277.427C122.761 278.456 122.919 279.564 123.156 280.594C123.55 282.731 124.103 284.79 124.656 286.928L124.735 287.165L124.498 287.323C122.998 288.432 121.418 289.461 119.601 290.015C117.863 290.649 115.967 290.965 114.15 290.965C112.254 290.965 110.437 290.728 108.62 290.253C106.803 289.778 105.144 289.144 103.485 288.274L103.327 288.194L103.406 288.036C103.643 287.403 103.801 286.769 103.88 286.136C103.959 285.502 104.038 284.869 104.038 284.157C104.117 283.048 103.959 281.702 103.643 280.435Z" fill="#30526D"/>
<path d="M102.142 281.623C102.142 281.623 99.6936 285.977 100.958 290.728L101.037 295.003C101.037 295.003 106.961 296.507 109.331 295.161C109.331 295.161 120.944 297.062 130.897 295.795C130.897 295.795 139.113 295.082 143.932 291.044L143.3 289.461C143.3 289.461 143.458 285.898 137.533 286.135C137.533 286.135 126.078 285.819 122.287 280.593C122.287 280.593 112.649 284.077 102.142 281.623Z" fill="#101724"/>
<path d="M135.795 156.131C135.795 150.272 133.425 132.775 133.425 132.775L91.8727 134.358V148.372L94.3216 163.811C94.7166 168.483 95.3485 176.637 95.6645 180.2C95.6645 180.2 95.2695 208.386 95.5855 215.354C95.5855 215.354 87.0539 236.968 91.7147 266.025L91.0037 272.359C91.0037 272.359 101.905 275.051 110.358 272.359C110.358 272.359 115.098 229.051 117.073 223.746C117.073 223.746 124.498 217.571 124.814 206.169C124.814 206.169 131.687 195.164 133.425 182.813C134.452 176.162 135.874 162.782 135.795 156.131Z" fill="#162E4F"/>
<path d="M125.92 281.306C112.728 285.027 102.063 281.781 102.063 281.781L100.957 252.645C98.5874 239.502 100.957 218.521 100.957 218.521C96.7705 206.169 95.8225 197.223 93.3737 190.414C92.8997 188.989 92.1097 186.217 91.3197 182.971C88.9498 173.708 85.948 160.248 85.948 160.248H86.106L83.1831 148.293L87.0539 134.437L128.764 133.408L129.159 150.114C129.238 151.064 129.238 152.014 129.159 153.123C131.687 165.632 128.527 188.038 128.527 188.038C128.527 188.038 126.789 208.861 125.446 216.145C124.498 221.45 124.735 237.285 124.735 237.285L125.92 281.306Z" fill="#24407A"/>
<path d="M169.527 118.603L177.505 116.861C177.505 116.861 187.301 117.178 189.197 122.245C189.197 122.245 191.962 123.828 190.619 126.124C190.619 126.124 189.671 128.025 188.17 127.708H187.064C187.064 127.708 187.538 130.717 184.536 130.242C184.536 130.242 184.615 131.35 183.351 132.458C183.351 132.458 179.401 133.409 172.449 131.588C172.449 131.588 166.367 129.529 162.575 126.283L155.86 123.037L160.047 113.932L169.527 118.603Z" fill="#FED7A8"/>
<path d="M117.152 14.251C117.152 14.251 121.97 18.6056 122.76 25.3354C122.76 25.3354 121.891 26.8397 122.76 28.2648C124.261 30.8776 128.843 34.3612 123.708 35.2322C123.708 35.2322 125.841 47.6625 117.073 47.0291C117.073 47.0291 113.913 50.1961 112.412 53.9965L94.2427 44.0205C94.2427 44.0205 95.9806 42.2787 95.1116 37.8449C94.2427 33.4112 94.2427 33.4112 94.2427 33.4112L100.404 18.5264L109.331 14.8052L117.152 14.251Z" fill="#FED7A8"/>
<path d="M177.505 116.94C177.505 116.94 184.22 121.453 183.351 132.537C178.69 134.279 153.806 129.925 134.294 114.011L136.269 121.611L141.562 157.24C120.628 163.257 99.2985 163.732 83.1832 157.24L83.1042 129.45L80.7343 97.8592C80.7343 97.8592 78.7594 85.983 78.9174 82.0243C78.2854 66.1103 84.8421 53.4424 90.4509 48.6919C90.4509 48.6919 91.3988 44.179 93.1368 42.9914C93.1368 42.9914 98.1925 42.2788 104.117 46.1583C104.117 46.1583 110.99 53.0465 114.15 55.7384L122.76 62.2307C122.76 62.2307 125.13 64.5268 127.579 71.0191C130.66 80.4408 136.032 89.2292 142.589 97.78C152.384 106.568 164.392 112.427 177.505 116.94Z" fill="#9CBAE2"/>
<path d="M95.4277 41.0912C95.4277 41.0912 81.7613 17.5765 98.5085 9.89657C98.5085 9.89657 107.04 4.90859 119.048 9.89657C120.628 10.53 124.261 13.0635 120.865 16.468C120.233 17.1014 116.204 17.1014 112.017 16.1513L114.071 22.2478C114.071 22.2478 109.41 24.7022 111.069 30.5611L108.699 31.5903C108.699 31.5903 107.198 26.0481 103.248 28.0275C100.641 29.3734 101.115 34.5989 105.934 36.42C105.934 36.42 103.485 43.6248 103.485 44.0999L95.4277 41.0912Z" fill="#914F22"/>
<path d="M177.347 117.257C178.137 117.415 183.825 124.62 182.877 132.221C182.877 132.459 162.022 133.884 134.373 113.378C123.55 105.618 113.834 96.8301 106.645 87.9626C103.09 82.5788 105.934 59.1432 118.179 59.2224C118.179 59.2224 119.758 60.2516 122.444 62.4685C124.972 64.6062 126.236 69.5942 127.105 71.4152C131.055 82.4204 134.531 88.2002 142.273 98.4136C153.174 107.756 165.261 113.219 177.347 117.257Z" fill="#B3CDEB"/>
<path d="M90.4509 48.6918C90.4509 48.6918 91.0039 44.6539 93.1368 42.9912C93.1368 42.9912 98.4296 42.3579 104.117 46.1582L114.466 55.9758C114.466 55.9758 107.04 50.7503 99.4565 49.0877C99.4565 49.0877 95.1117 47.9792 90.4509 48.6918Z" fill="#B3CDEB"/>
</g>
<defs>
<clipPath id="clip0_3905_23775">
<rect width="296" height="303" fill="white"/>
</clipPath>
</defs>
</svg>
